<?xml version="1.0" encoding="UTF-8" standalone="no"?>
<svg
   height="24"
   viewBox="0 -960 960 960"
   width="24"
   version="1.1"
   id="svg1"
   sodipodi:docname="camera_FILL0_wght400_GRAD0_opsz24.svg"
   inkscape:version="1.3 (0e150ed6c4, 2023-07-21)"
   xmlns:inkscape="http://www.inkscape.org/namespaces/inkscape"
   xmlns:sodipodi="http://sodipodi.sourceforge.net/DTD/sodipodi-0.dtd"
   xmlns="http://www.w3.org/2000/svg"
   xmlns:svg="http://www.w3.org/2000/svg">
  <defs
     id="defs1" />
  <sodipodi:namedview
     id="namedview1"
     pagecolor="#505050"
     bordercolor="#ffffff"
     borderopacity="1"
     inkscape:showpageshadow="0"
     inkscape:pageopacity="0"
     inkscape:pagecheckerboard="1"
     inkscape:deskcolor="#d1d1d1"
     inkscape:zoom="48.541667"
     inkscape:cx="12"
     inkscape:cy="13.648069"
     inkscape:window-width="2560"
     inkscape:window-height="1371"
     inkscape:window-x="0"
     inkscape:window-y="0"
     inkscape:window-maximized="1"
     inkscape:current-layer="svg1" />
  <circle
     style="fill:#999999;stroke-width:93.8279"
     id="path2"
     cx="480"
     cy="-480"
     r="440" />
  <path
     d="M 456,-600 H 776 Q 749,-669 693.5,-718.5 638,-768 566,-788 Z m -92,80 160,-276 q -11,-2 -22,-3 -11,-1 -22,-1 -66,0 -123,25 -57,25 -101,67 z M 170,-400 H 388 L 228,-676 q -32,41 -50,90.5 -18,49.5 -18,105.5 0,21 2.5,40.5 2.5,19.5 7.5,39.5 z m 224,228 108,-188 H 184 q 27,69 82.5,118.5 Q 322,-192 394,-172 Z m 86,12 q 66,0 123,-25 57,-25 101,-67 L 596,-440 436,-164 q 11,2 21.5,3 10.5,1 22.5,1 z m 252,-124 q 32,-41 50,-90.5 18,-49.5 18,-105.5 0,-21 -2.5,-40.5 Q 795,-540 790,-560 H 572 Z M 480,-480 Z m 0,400 q -82,0 -155,-31.5 -73,-31.5 -127.5,-86 Q 143,-252 111.5,-325 80,-398 80,-480 q 0,-83 31.5,-155.5 31.5,-72.5 86,-127 54.5,-54.5 127.5,-86 73,-31.5 155,-31.5 83,0 155.5,31.5 72.5,31.5 127,86 54.5,54.5 86,127 31.5,72.5 31.5,155.5 0,82 -31.5,155 -31.5,73 -86,127.5 -54.5,54.5 -127,86 Q 563,-80 480,-80 Z"
     id="path1" />
</svg>
